<?xml version="1.0" encoding="utf-8" standalone="no"?>
<!DOCTYPE svg PUBLIC "-//W3C//DTD SVG 1.1//EN"
  "http://www.w3.org/Graphics/SVG/1.1/DTD/svg11.dtd">
<svg xmlns:xlink="http://www.w3.org/1999/xlink" width="125.28pt" height="125.28pt" viewBox="0 0 125.28 125.28" xmlns="http://www.w3.org/2000/svg" version="1.1">
 <metadata>
  <rdf:RDF xmlns:dc="http://purl.org/dc/elements/1.1/" xmlns:cc="http://creativecommons.org/ns#" xmlns:rdf="http://www.w3.org/1999/02/22-rdf-syntax-ns#">
   <cc:Work>
    <dc:type rdf:resource="http://purl.org/dc/dcmitype/StillImage"/>
    <dc:date>2026-03-09T15:58:01.708097</dc:date>
    <dc:format>image/svg+xml</dc:format>
    <dc:creator>
     <cc:Agent>
      <dc:title>Matplotlib v3.8.2, https://matplotlib.org/</dc:title>
     </cc:Agent>
    </dc:creator>
   </cc:Work>
  </rdf:RDF>
 </metadata>
 <defs>
  <style type="text/css">*{stroke-linejoin: round; stroke-linecap: butt}</style>
 </defs>
 <g id="figure_1">
  <g id="patch_1">
   <path d="M 0 125.28 
L 125.28 125.28 
L 125.28 0 
L 0 0 
L 0 125.28 
z
" style="fill: none; opacity: 0"/>
  </g>
  <g id="axes_1">
   <g id="patch_2">
    <path d="M 95.904 79.272 
L 106.992 79.272 
L 106.992 46.008 
L 95.904 46.008 
z
" clip-path="url(#p134dfcdb6d)" style="fill: #d55e00; opacity: 0.7; stroke: #d55e00; stroke-linejoin: miter"/>
   </g>
   <g id="patch_3">
    <path d="M 18.288 68.184 
L 106.992 68.184 
L 106.992 57.096 
L 18.288 57.096 
z
" clip-path="url(#p134dfcdb6d)" style="fill: #d55e00; opacity: 0.9; stroke: #d55e00; stroke-linejoin: miter"/>
   </g>
   <g id="patch_4">
    <path d="M 24.9408 118.08 
L 32.81328 118.08 
L 32.81328 7.2 
L 24.9408 7.2 
z
" clip-path="url(#p134dfcdb6d)" style="fill: #d55e00; opacity: 0.7; stroke: #d55e00; stroke-linejoin: miter"/>
   </g>
   <g id="PathCollection_1">
    <path d="M 59.744626 67.64 
C 61.070642 67.64 62.342526 67.113168 63.28016 66.175534 
C 64.217795 65.237899 64.744626 63.966015 64.744626 62.64 
C 64.744626 61.313985 64.217795 60.042101 63.28016 59.104466 
C 62.342526 58.166832 61.070642 57.64 59.744626 57.64 
C 58.418611 57.64 57.146727 58.166832 56.209093 59.104466 
C 55.271458 60.042101 54.744626 61.313985 54.744626 62.64 
C 54.744626 63.966015 55.271458 65.237899 56.209093 66.175534 
C 57.146727 67.113168 58.418611 67.64 59.744626 67.64 
L 59.744626 67.64 
z
" clip-path="url(#p134dfcdb6d)" style="fill: none; stroke: #f5f5f5; stroke-width: 3"/>
   </g>
   <g id="PathCollection_2">
    <defs>
     <path id="m2a03c97b6a" d="M -5 5 
L 5 -5 
M -5 -5 
L 5 5 
" style="stroke: #f5f5f5; stroke-width: 3"/>
    </defs>
    <g clip-path="url(#p134dfcdb6d)">
     <use xlink:href="#m2a03c97b6a" x="68.139904" y="62.64" style="fill: #f5f5f5; stroke: #f5f5f5; stroke-width: 3"/>
    </g>
   </g>
  </g>
 </g>
 <defs>
  <clipPath id="p134dfcdb6d">
   <rect x="7.2" y="7.2" width="110.88" height="110.88"/>
  </clipPath>
 </defs>
</svg>
