<?xml version="1.0" encoding="utf-8" standalone="no"?>
<!DOCTYPE svg PUBLIC "-//W3C//DTD SVG 1.1//EN"
  "http://www.w3.org/Graphics/SVG/1.1/DTD/svg11.dtd">
<svg xmlns:xlink="http://www.w3.org/1999/xlink" width="125.28pt" height="125.28pt" viewBox="0 0 125.28 125.28" xmlns="http://www.w3.org/2000/svg" version="1.1">
 <metadata>
  <rdf:RDF xmlns:dc="http://purl.org/dc/elements/1.1/" xmlns:cc="http://creativecommons.org/ns#" xmlns:rdf="http://www.w3.org/1999/02/22-rdf-syntax-ns#">
   <cc:Work>
    <dc:type rdf:resource="http://purl.org/dc/dcmitype/StillImage"/>
    <dc:date>2026-03-09T15:56:35.082224</dc:date>
    <dc:format>image/svg+xml</dc:format>
    <dc:creator>
     <cc:Agent>
      <dc:title>Matplotlib v3.8.2, https://matplotlib.org/</dc:title>
     </cc:Agent>
    </dc:creator>
   </cc:Work>
  </rdf:RDF>
 </metadata>
 <defs>
  <style type="text/css">*{stroke-linejoin: round; stroke-linecap: butt}</style>
 </defs>
 <g id="figure_1">
  <g id="patch_1">
   <path d="M 0 125.28 
L 125.28 125.28 
L 125.28 0 
L 0 0 
L 0 125.28 
z
" style="fill: none; opacity: 0"/>
  </g>
  <g id="axes_1">
   <g id="patch_2">
    <path d="M 95.904 79.272 
L 106.992 79.272 
L 106.992 46.008 
L 95.904 46.008 
z
" clip-path="url(#pa9bca3e1f6)" style="fill: #d55e00; opacity: 0.7; stroke: #d55e00; stroke-linejoin: miter"/>
   </g>
   <g id="patch_3">
    <path d="M 18.288 68.184 
L 106.992 68.184 
L 106.992 57.096 
L 18.288 57.096 
z
" clip-path="url(#pa9bca3e1f6)" style="fill: #d55e00; opacity: 0.9; stroke: #d55e00; stroke-linejoin: miter"/>
   </g>
   <g id="patch_4">
    <path d="M 45.4536 117.85824 
L 79.8264 117.85824 
L 79.8264 7.42176 
L 45.4536 7.42176 
z
" clip-path="url(#pa9bca3e1f6)" style="fill: #d55e00; opacity: 0.7; stroke: #d55e00; stroke-linejoin: miter"/>
   </g>
   <g id="PathCollection_1">
    <path d="M 63.49347 67.64 
C 64.819486 67.64 66.091369 67.113168 67.029004 66.175534 
C 67.966638 65.237899 68.49347 63.966015 68.49347 62.64 
C 68.49347 61.313985 67.966638 60.042101 67.029004 59.104466 
C 66.091369 58.166832 64.819486 57.64 63.49347 57.64 
C 62.167455 57.64 60.895571 58.166832 59.957936 59.104466 
C 59.020302 60.042101 58.49347 61.313985 58.49347 62.64 
C 58.49347 63.966015 59.020302 65.237899 59.957936 66.175534 
C 60.895571 67.113168 62.167455 67.64 63.49347 67.64 
L 63.49347 67.64 
z
" clip-path="url(#pa9bca3e1f6)" style="fill: none; stroke: #f5f5f5; stroke-width: 3"/>
   </g>
   <g id="PathCollection_2">
    <defs>
     <path id="mf97446a0d4" d="M -5 5 
L 5 -5 
M -5 -5 
L 5 5 
" style="stroke: #f5f5f5; stroke-width: 3"/>
    </defs>
    <g clip-path="url(#pa9bca3e1f6)">
     <use xlink:href="#mf97446a0d4" x="67.577371" y="62.64" style="fill: #f5f5f5; stroke: #f5f5f5; stroke-width: 3"/>
    </g>
   </g>
  </g>
 </g>
 <defs>
  <clipPath id="pa9bca3e1f6">
   <rect x="7.2" y="7.2" width="110.88" height="110.88"/>
  </clipPath>
 </defs>
</svg>
