<?xml version="1.0" encoding="utf-8" standalone="no"?>
<!DOCTYPE svg PUBLIC "-//W3C//DTD SVG 1.1//EN"
  "http://www.w3.org/Graphics/SVG/1.1/DTD/svg11.dtd">
<svg xmlns:xlink="http://www.w3.org/1999/xlink" width="125.28pt" height="125.28pt" viewBox="0 0 125.28 125.28" xmlns="http://www.w3.org/2000/svg" version="1.1">
 <metadata>
  <rdf:RDF xmlns:dc="http://purl.org/dc/elements/1.1/" xmlns:cc="http://creativecommons.org/ns#" xmlns:rdf="http://www.w3.org/1999/02/22-rdf-syntax-ns#">
   <cc:Work>
    <dc:type rdf:resource="http://purl.org/dc/dcmitype/StillImage"/>
    <dc:date>2026-03-09T16:02:31.549520</dc:date>
    <dc:format>image/svg+xml</dc:format>
    <dc:creator>
     <cc:Agent>
      <dc:title>Matplotlib v3.8.2, https://matplotlib.org/</dc:title>
     </cc:Agent>
    </dc:creator>
   </cc:Work>
  </rdf:RDF>
 </metadata>
 <defs>
  <style type="text/css">*{stroke-linejoin: round; stroke-linecap: butt}</style>
 </defs>
 <g id="figure_1">
  <g id="patch_1">
   <path d="M 0 125.28 
L 125.28 125.28 
L 125.28 0 
L 0 0 
L 0 125.28 
z
" style="fill: none; opacity: 0"/>
  </g>
  <g id="axes_1">
   <g id="patch_2">
    <path d="M 95.904 79.272 
L 106.992 79.272 
L 106.992 46.008 
L 95.904 46.008 
z
" clip-path="url(#pca3e1d8d63)" style="fill: #0072b2; opacity: 0.7; stroke: #0072b2; stroke-linejoin: miter"/>
   </g>
   <g id="patch_3">
    <path d="M 18.288 68.184 
L 106.992 68.184 
L 106.992 57.096 
L 18.288 57.096 
z
" clip-path="url(#pca3e1d8d63)" style="fill: #0072b2; opacity: 0.9; stroke: #0072b2; stroke-linejoin: miter"/>
   </g>
   <g id="patch_4">
    <path d="M 52.77168 114.97536 
L 72.73008 114.97536 
L 72.73008 10.30464 
L 52.77168 10.30464 
z
" clip-path="url(#pca3e1d8d63)" style="fill: #0072b2; opacity: 0.7; stroke: #0072b2; stroke-linejoin: miter"/>
   </g>
   <g id="PathCollection_1">
    <path d="M 69.80656 67.64 
C 71.132575 67.64 72.404459 67.113168 73.342094 66.175534 
C 74.279728 65.237899 74.80656 63.966015 74.80656 62.64 
C 74.80656 61.313985 74.279728 60.042101 73.342094 59.104466 
C 72.404459 58.166832 71.132575 57.64 69.80656 57.64 
C 68.480544 57.64 67.20866 58.166832 66.271026 59.104466 
C 65.333391 60.042101 64.80656 61.313985 64.80656 62.64 
C 64.80656 63.966015 65.333391 65.237899 66.271026 66.175534 
C 67.20866 67.113168 68.480544 67.64 69.80656 67.64 
L 69.80656 67.64 
z
" clip-path="url(#pca3e1d8d63)" style="fill: none; stroke: #f5f5f5; stroke-width: 3"/>
   </g>
   <g id="PathCollection_2">
    <defs>
     <path id="mbc382c76ef" d="M -5 5 
L 5 -5 
M -5 -5 
L 5 5 
" style="stroke: #f5f5f5; stroke-width: 3"/>
    </defs>
    <g clip-path="url(#pca3e1d8d63)">
     <use xlink:href="#mbc382c76ef" x="69.615755" y="62.64" style="fill: #f5f5f5; stroke: #f5f5f5; stroke-width: 3"/>
    </g>
   </g>
  </g>
 </g>
 <defs>
  <clipPath id="pca3e1d8d63">
   <rect x="7.2" y="7.2" width="110.88" height="110.88"/>
  </clipPath>
 </defs>
</svg>
