<?xml version="1.0" encoding="utf-8" standalone="no"?>
<!DOCTYPE svg PUBLIC "-//W3C//DTD SVG 1.1//EN"
  "http://www.w3.org/Graphics/SVG/1.1/DTD/svg11.dtd">
<svg xmlns:xlink="http://www.w3.org/1999/xlink" width="125.28pt" height="125.28pt" viewBox="0 0 125.28 125.28" xmlns="http://www.w3.org/2000/svg" version="1.1">
 <metadata>
  <rdf:RDF xmlns:dc="http://purl.org/dc/elements/1.1/" xmlns:cc="http://creativecommons.org/ns#" xmlns:rdf="http://www.w3.org/1999/02/22-rdf-syntax-ns#">
   <cc:Work>
    <dc:type rdf:resource="http://purl.org/dc/dcmitype/StillImage"/>
    <dc:date>2026-03-09T15:58:01.731484</dc:date>
    <dc:format>image/svg+xml</dc:format>
    <dc:creator>
     <cc:Agent>
      <dc:title>Matplotlib v3.8.2, https://matplotlib.org/</dc:title>
     </cc:Agent>
    </dc:creator>
   </cc:Work>
  </rdf:RDF>
 </metadata>
 <defs>
  <style type="text/css">*{stroke-linejoin: round; stroke-linecap: butt}</style>
 </defs>
 <g id="figure_1">
  <g id="patch_1">
   <path d="M 0 125.28 
L 125.28 125.28 
L 125.28 0 
L 0 0 
L 0 125.28 
z
" style="fill: none; opacity: 0"/>
  </g>
  <g id="axes_1">
   <g id="patch_2">
    <path d="M 95.904 79.272 
L 106.992 79.272 
L 106.992 46.008 
L 95.904 46.008 
z
" clip-path="url(#p5f4726a3df)" style="fill: #0072b2; opacity: 0.7; stroke: #0072b2; stroke-linejoin: miter"/>
   </g>
   <g id="patch_3">
    <path d="M 18.288 68.184 
L 106.992 68.184 
L 106.992 57.096 
L 18.288 57.096 
z
" clip-path="url(#p5f4726a3df)" style="fill: #0072b2; opacity: 0.9; stroke: #0072b2; stroke-linejoin: miter"/>
   </g>
   <g id="patch_4">
    <path d="M 54.65664 117.85824 
L 71.84304 117.85824 
L 71.84304 7.42176 
L 54.65664 7.42176 
z
" clip-path="url(#p5f4726a3df)" style="fill: #0072b2; opacity: 0.7; stroke: #0072b2; stroke-linejoin: miter"/>
   </g>
   <g id="PathCollection_1">
    <path d="M 71.444477 67.64 
C 72.770493 67.64 74.042377 67.113168 74.980011 66.175534 
C 75.917646 65.237899 76.444477 63.966015 76.444477 62.64 
C 76.444477 61.313985 75.917646 60.042101 74.980011 59.104466 
C 74.042377 58.166832 72.770493 57.64 71.444477 57.64 
C 70.118462 57.64 68.846578 58.166832 67.908944 59.104466 
C 66.971309 60.042101 66.444477 61.313985 66.444477 62.64 
C 66.444477 63.966015 66.971309 65.237899 67.908944 66.175534 
C 68.846578 67.113168 70.118462 67.64 71.444477 67.64 
L 71.444477 67.64 
z
" clip-path="url(#p5f4726a3df)" style="fill: none; stroke: #f5f5f5; stroke-width: 3"/>
   </g>
   <g id="PathCollection_2">
    <defs>
     <path id="mb6cb358042" d="M -5 5 
L 5 -5 
M -5 -5 
L 5 5 
" style="stroke: #f5f5f5; stroke-width: 3"/>
    </defs>
    <g clip-path="url(#p5f4726a3df)">
     <use xlink:href="#mb6cb358042" x="70.069621" y="62.64" style="fill: #f5f5f5; stroke: #f5f5f5; stroke-width: 3"/>
    </g>
   </g>
  </g>
 </g>
 <defs>
  <clipPath id="p5f4726a3df">
   <rect x="7.2" y="7.2" width="110.88" height="110.88"/>
  </clipPath>
 </defs>
</svg>
